<!DOCTYPE svg PUBLIC "-//W3C//DTD SVG 1.1//EN" "http://www.w3.org/Graphics/SVG/1.1/DTD/svg11.dtd">

<!-- Uploaded to: SVG Repo, www.svgrepo.com, Transformed by: SVG Repo Mixer Tools -->
<svg fill="#929292" height="24px" width="24px" version="1.1" id="Layer_1"
	xmlns="http://www.w3.org/2000/svg" xmlns:xlink="http://www.w3.org/1999/xlink"
	viewBox="-51.2 -51.2 614.40 614.40" xml:space="preserve" transform="matrix(1, 0, 0, 1, 0, 0)"
	stroke="#FFFFFF" stroke-width="19.456152">

<g id="SVGRepo_bgCarrier" stroke-width="0"/>

<g id="SVGRepo_tracerCarrier" stroke-linecap="round" stroke-linejoin="round" stroke="#929292" stroke-width="2.048016"/>

<g id="SVGRepo_iconCarrier"> <g> <g> <circle cx="423.873" cy="274.292" r="9.298"/> </g> </g> <g> <g> <path d="M394.504,0h-0.546c-20.037,0-36.338,16.301-36.338,36.338v104.295c0,5.135,4.163,9.298,9.298,9.298 c5.136,0,9.298-4.163,9.298-9.298V36.338c0-9.783,7.959-17.742,17.742-17.742h0.546c9.783,0,17.742,7.959,17.742,17.742V46.49 c0,5.135,4.163,9.298,9.298,9.298s9.298-4.163,9.298-9.298V36.338C430.842,16.301,414.541,0,394.504,0z"/> </g> </g> <g> <g> <path d="M301.524,38.354h-0.546c-20.037,0-36.338,16.301-36.338,36.338v10.152c0,5.135,4.163,9.298,9.298,9.298 s9.298-4.163,9.298-9.298V74.692c0-9.783,7.959-17.742,17.742-17.742h0.546c9.783,0,17.742,7.959,17.742,17.742v72.914 c0,5.135,4.163,9.298,9.298,9.298c5.136,0,9.298-4.163,9.298-9.298V74.692C337.862,54.655,321.561,38.354,301.524,38.354z"/> </g> </g> <g> <g> <path d="M498.854,272.782c0-0.002-0.291-0.998-0.291-0.998c-8.145-27.873-25.416-52.958-48.64-70.643 c-24.027-18.296-52.73-27.967-83.005-27.967c-41.484,0-80.315,28.43-105.916,49.816c-15.528,12.978-30.174,25.391-43.099,36.341 c-55.445,46.983-95.503,80.928-112.621,80.928c-2.148,0-3.421-0.579-4.695-2.135c-5.223-6.378,0.819-14.799,2.791-17.221 c8.344-10.237,17.355-12.736,28.268-14.938c3.577-0.722,6.402-3.471,7.221-7.028c0.819-3.557-0.518-7.264-3.421-9.478 c-8.444-6.443-17.156-10.373-29.13-13.139c-5.817-1.344-11.616-2.025-17.234-2.025c-36.825,0-66.469,29.317-77.368,76.51 c-11.445,49.614,2.465,105.73,51.191,116.983c4.339,1.003,9.117,1.511,14.199,1.511c6.246,0,12.943-0.733,20.474-2.243 c3.581-0.717,6.395-3.475,7.216-7.033c0.823-3.558-0.528-7.278-3.43-9.494c-7.837-5.984-15.94-12.173-16.96-19.311 c-0.629-4.399,0.178-8.641,2.056-10.808c0.659-0.761,1.713-1.635,4.06-1.638c4.904,0,8.719,1.303,17.643,4.514 c6.14,2.211,14.548,5.236,26.548,8.725c0.001,0,0.001,0,0.002,0.001c2.796,0.814,5.861,1.667,9.377,2.612 c50.186,13.425,89.675,19.678,124.275,19.677c18.917,0,34.541-1.792,49.651-3.525c3.598-0.413,7.259-0.83,10.967-1.225 c-3.672,11.889-9.804,21.882-18.318,29.8c-8.579,7.974-11.536,15.56-8.79,22.548c1.483,3.775,5.962,10.106,19.296,10.106 c14.4,0,33.788-7.109,50.599-18.553c14.389-9.795,33.63-27.27,45.403-55.508c0.002,0.005,0.006,0.015,0.006,0.015 c52.15-20.549,86.878-71.304,86.878-127.639C504.058,297.551,502.308,284.923,498.854,272.782z M315.9,432.296 c-14.591,1.674-29.678,3.404-47.533,3.404c-14.646,0-30.286-1.196-47.411-3.668c0.009-0.001-0.012-0.006-0.05-0.012 c53.066-7.122,91.748-25.639,109.87-35.9c1.577,8.586,3.015,21.003,1.84,34.361C326.894,431.036,321.333,431.673,315.9,432.296z M412.828,351.591c-3.801,1.676-6.029,5.668-5.459,9.783c3.369,24.355,1.348,46.576-6.007,66.043 c-16.904,44.679-58.91,64.769-78.442,65.935c0.131-0.126,0.266-0.253,0.408-0.385c14.341-13.333,23.351-30.968,26.781-52.412 c5.08-31.74-4.004-60.696-4.392-61.914c-0.901-2.815-3.086-5.036-5.888-5.98c-0.968-0.327-1.971-0.487-2.968-0.487 c-1.886,0-3.753,0.574-5.337,1.684c-0.606,0.424-61.669,42.477-154.041,42.477c-7.864,0-15.796-0.308-23.713-0.919 c-4.865-0.375-14.47-1.556-22.66-3.934c-6.875-2.179-12.156-4.08-16.647-5.696c-9.392-3.38-15.596-5.614-23.985-5.614 c-7.158,0.007-13.575,2.868-18.07,8.057c-5.494,6.342-7.83,15.679-6.41,25.615c0.935,6.546,3.881,12.026,7.73,16.754 c-2.38-0.149-4.603-0.46-6.636-0.931c-36.835-8.507-46.624-54.071-37.257-94.682c8.98-38.883,31.127-62.096,59.248-62.096 c4.212,0,8.603,0.521,13.05,1.547c1.12,0.259,2.2,0.529,3.242,0.809c-5.64,3.106-11.172,7.48-16.414,13.913 c-10.938,13.441-12.021,29.435-2.762,40.744c4.794,5.857,11.394,8.953,19.084,8.953c23.937,0,59.706-30.312,124.643-85.336 c12.901-10.932,27.523-23.322,43-36.259c23.378-19.528,58.554-45.491,93.992-45.491c51.459,0,97.54,33.863,113.021,82.685 C454.573,332.274,413.22,351.415,412.828,351.591z M424.551,413.941c0.028-0.136,0.188-0.987,0.18-0.946 c2.967-14.919,3.596-30.857,1.849-47.658c11.684-6.746,37.423-24.648,58.75-60.694c0,0,0.076,1.668,0.095,2.49 c0.027,1.061,0.037,2.122,0.037,3.182C485.462,353.714,461.625,393.276,424.551,413.941z"/> </g> </g> </g>

</svg>